# xmcd CD database file
#
# Track frame offsets:
#	150
#	30040
#	44762
#	61555
#	89492
#	118113
#	143533
#	153139
#	167769
#	186622
#	200696
#	217668
#	230022
#	270167
#
# Disc length: 3728 seconds
#
# Revision: 0
# Processed by: cddbd v1.5.2PL0 Copyright (c) Steve Scherf et al.
# Submitted via: CDex 1.70beta2
#
DISCID=b60e8e0e
DTITLE=Varios - Nossa Vida não Cabe Num Opala
DYEAR=2008
DGENRE=Blues
TTITLE0=Nossa vida não cabe num Opala - Tempo Instavel
TTITLE1=Eu não faço nada pra chamar sua atenção - Tempo Instavel
TTITLE2=Suzete Gilete - Tempo Instavel
TTITLE3=Amigos do corpo - Bêbados Habilidosos
TTITLE4=Cortesã - Bêbados Habilidosos
TTITLE5=Walk away - Dr Cascadura
TTITLE6=Poema em linha reta - Patife Band
TTITLE7=Chapéu vermelho - Patife Band
TTITLE8=The big stomach - Patife Band
TTITLE9=Marimbondo - La Carne
TTITLE10=Texas dream - OAEOZ
TTITLE11=Folhas de Outono - Iris
TTITLE12=Neblina - Iris
TTITLE13=Baby de 30 - Nelson Mota Melo
EXTD=YEAR: 2008
EXTT0=
EXTT1=
EXTT2=
EXTT3=
EXTT4=
EXTT5=
EXTT6=
EXTT7=
EXTT8=
EXTT9=
EXTT10=
EXTT11=
EXTT12=
EXTT13=
PLAYORDER=
